<mxfile host="app.diagrams.net" modified="2020-08-08T23:26:21.535Z" agent="5.0 (Macintosh; Intel Mac OS X 10_13_6) AppleWebKit/537.36 (KHTML, like Gecko) Chrome/84.0.4147.105 Safari/537.36" etag="5YsbWLYkKiZ6CvYyl1_a" version="13.6.1" type="github">
  <diagram id="C5RBs43oDa-KdzZeNtuy" name="Page-1">
    <mxGraphModel dx="946" dy="541" grid="1" gridSize="10" guides="1" tooltips="1" connect="1" arrows="1" fold="1" page="1" pageScale="1" pageWidth="827" pageHeight="1169" math="0" shadow="0">
      <root>
        <mxCell id="WIyWlLk6GJQsqaUBKTNV-0" />
        <mxCell id="WIyWlLk6GJQsqaUBKTNV-1" parent="WIyWlLk6GJQsqaUBKTNV-0" />
        <mxCell id="gXcX9Wi-f0I-uz0T1PP1-4" value="5" style="shape=process;whiteSpace=wrap;html=1;backgroundOutline=1;size=0.3333333333333333;" vertex="1" parent="WIyWlLk6GJQsqaUBKTNV-1">
          <mxGeometry x="200" y="90" width="120" height="40" as="geometry" />
        </mxCell>
        <mxCell id="gXcX9Wi-f0I-uz0T1PP1-5" value="8" style="shape=process;whiteSpace=wrap;html=1;backgroundOutline=1;size=0.3333333333333333;" vertex="1" parent="WIyWlLk6GJQsqaUBKTNV-1">
          <mxGeometry x="320" y="90" width="120" height="40" as="geometry" />
        </mxCell>
        <mxCell id="gXcX9Wi-f0I-uz0T1PP1-8" value="3" style="text;html=1;strokeColor=none;fillColor=none;align=center;verticalAlign=middle;whiteSpace=wrap;rounded=0;" vertex="1" parent="WIyWlLk6GJQsqaUBKTNV-1">
          <mxGeometry x="200" y="100" width="40" height="20" as="geometry" />
        </mxCell>
        <mxCell id="gXcX9Wi-f0I-uz0T1PP1-9" value="2" style="text;html=1;strokeColor=none;fillColor=none;align=center;verticalAlign=middle;whiteSpace=wrap;rounded=0;" vertex="1" parent="WIyWlLk6GJQsqaUBKTNV-1">
          <mxGeometry x="280" y="100" width="40" height="20" as="geometry" />
        </mxCell>
        <mxCell id="gXcX9Wi-f0I-uz0T1PP1-10" value="1" style="text;html=1;strokeColor=none;fillColor=none;align=center;verticalAlign=middle;whiteSpace=wrap;rounded=0;" vertex="1" parent="WIyWlLk6GJQsqaUBKTNV-1">
          <mxGeometry x="320" y="100" width="40" height="20" as="geometry" />
        </mxCell>
        <mxCell id="gXcX9Wi-f0I-uz0T1PP1-11" value="6" style="text;html=1;strokeColor=none;fillColor=none;align=center;verticalAlign=middle;whiteSpace=wrap;rounded=0;" vertex="1" parent="WIyWlLk6GJQsqaUBKTNV-1">
          <mxGeometry x="400" y="100" width="40" height="20" as="geometry" />
        </mxCell>
        <mxCell id="gXcX9Wi-f0I-uz0T1PP1-27" value="11" style="shape=process;whiteSpace=wrap;html=1;backgroundOutline=1;size=0.3333333333333333;" vertex="1" parent="WIyWlLk6GJQsqaUBKTNV-1">
          <mxGeometry x="200" y="200" width="120" height="40" as="geometry" />
        </mxCell>
        <mxCell id="gXcX9Wi-f0I-uz0T1PP1-28" value="" style="rounded=0;whiteSpace=wrap;html=1;" vertex="1" parent="WIyWlLk6GJQsqaUBKTNV-1">
          <mxGeometry x="320" y="200" width="40" height="40" as="geometry" />
        </mxCell>
        <mxCell id="gXcX9Wi-f0I-uz0T1PP1-30" value="4" style="rounded=0;whiteSpace=wrap;html=1;" vertex="1" parent="WIyWlLk6GJQsqaUBKTNV-1">
          <mxGeometry x="480" y="90" width="40" height="40" as="geometry" />
        </mxCell>
        <mxCell id="gXcX9Wi-f0I-uz0T1PP1-31" value="" style="rounded=0;whiteSpace=wrap;html=1;" vertex="1" parent="WIyWlLk6GJQsqaUBKTNV-1">
          <mxGeometry x="440" y="90" width="40" height="40" as="geometry" />
        </mxCell>
        <mxCell id="gXcX9Wi-f0I-uz0T1PP1-12" value="7" style="text;html=1;strokeColor=none;fillColor=none;align=center;verticalAlign=middle;whiteSpace=wrap;rounded=0;" vertex="1" parent="WIyWlLk6GJQsqaUBKTNV-1">
          <mxGeometry x="440" y="100" width="40" height="20" as="geometry" />
        </mxCell>
        <mxCell id="gXcX9Wi-f0I-uz0T1PP1-32" value="" style="curved=1;endArrow=classic;html=1;exitX=0.5;exitY=1;exitDx=0;exitDy=0;" edge="1" parent="WIyWlLk6GJQsqaUBKTNV-1" source="gXcX9Wi-f0I-uz0T1PP1-5">
          <mxGeometry width="50" height="50" relative="1" as="geometry">
            <mxPoint x="379.98" y="150" as="sourcePoint" />
            <mxPoint x="220.01999999999998" y="197" as="targetPoint" />
            <Array as="points">
              <mxPoint x="370.02" y="177" />
            </Array>
          </mxGeometry>
        </mxCell>
        <mxCell id="gXcX9Wi-f0I-uz0T1PP1-33" value="11" style="text;html=1;strokeColor=none;fillColor=none;align=center;verticalAlign=middle;whiteSpace=wrap;rounded=0;" vertex="1" parent="WIyWlLk6GJQsqaUBKTNV-1">
          <mxGeometry x="200" y="210" width="40" height="20" as="geometry" />
        </mxCell>
        <mxCell id="gXcX9Wi-f0I-uz0T1PP1-34" value="9" style="text;html=1;strokeColor=none;fillColor=none;align=center;verticalAlign=middle;whiteSpace=wrap;rounded=0;" vertex="1" parent="WIyWlLk6GJQsqaUBKTNV-1">
          <mxGeometry x="280" y="210" width="40" height="20" as="geometry" />
        </mxCell>
        <mxCell id="gXcX9Wi-f0I-uz0T1PP1-35" value="5" style="text;html=1;strokeColor=none;fillColor=none;align=center;verticalAlign=middle;whiteSpace=wrap;rounded=0;" vertex="1" parent="WIyWlLk6GJQsqaUBKTNV-1">
          <mxGeometry x="320" y="220" width="40" as="geometry" />
        </mxCell>
        <mxCell id="gXcX9Wi-f0I-uz0T1PP1-42" value="" style="curved=1;endArrow=classic;html=1;" edge="1" parent="WIyWlLk6GJQsqaUBKTNV-1">
          <mxGeometry width="50" height="50" relative="1" as="geometry">
            <mxPoint x="300" y="240" as="sourcePoint" />
            <mxPoint x="220.01" y="307" as="targetPoint" />
            <Array as="points">
              <mxPoint x="290.03" y="287" />
            </Array>
          </mxGeometry>
        </mxCell>
        <mxCell id="gXcX9Wi-f0I-uz0T1PP1-43" value="16" style="rounded=0;whiteSpace=wrap;html=1;" vertex="1" parent="WIyWlLk6GJQsqaUBKTNV-1">
          <mxGeometry x="240" y="310" width="40" height="40" as="geometry" />
        </mxCell>
        <mxCell id="gXcX9Wi-f0I-uz0T1PP1-44" value="20" style="rounded=0;whiteSpace=wrap;html=1;" vertex="1" parent="WIyWlLk6GJQsqaUBKTNV-1">
          <mxGeometry x="200" y="310" width="40" height="40" as="geometry" />
        </mxCell>
        <mxCell id="gXcX9Wi-f0I-uz0T1PP1-49" value="36" style="rounded=0;whiteSpace=wrap;html=1;" vertex="1" parent="WIyWlLk6GJQsqaUBKTNV-1">
          <mxGeometry x="200" y="420" width="40" height="40" as="geometry" />
        </mxCell>
        <mxCell id="gXcX9Wi-f0I-uz0T1PP1-51" value="&lt;b&gt;&lt;font style=&quot;font-size: 16px&quot;&gt;Parallel Reduction Algorithm&lt;/font&gt;&lt;/b&gt;" style="text;html=1;strokeColor=none;fillColor=none;align=center;verticalAlign=middle;whiteSpace=wrap;rounded=0;" vertex="1" parent="WIyWlLk6GJQsqaUBKTNV-1">
          <mxGeometry x="210" y="40" width="300" height="50" as="geometry" />
        </mxCell>
        <mxCell id="gXcX9Wi-f0I-uz0T1PP1-57" value="" style="endArrow=classic;html=1;" edge="1" parent="WIyWlLk6GJQsqaUBKTNV-1">
          <mxGeometry width="50" height="50" relative="1" as="geometry">
            <mxPoint x="219.5" y="130" as="sourcePoint" />
            <mxPoint x="219.5" y="200" as="targetPoint" />
          </mxGeometry>
        </mxCell>
        <mxCell id="gXcX9Wi-f0I-uz0T1PP1-58" value="" style="endArrow=classic;html=1;" edge="1" parent="WIyWlLk6GJQsqaUBKTNV-1">
          <mxGeometry width="50" height="50" relative="1" as="geometry">
            <mxPoint x="259.5" y="130" as="sourcePoint" />
            <mxPoint x="259.5" y="200" as="targetPoint" />
          </mxGeometry>
        </mxCell>
        <mxCell id="gXcX9Wi-f0I-uz0T1PP1-59" value="" style="endArrow=classic;html=1;" edge="1" parent="WIyWlLk6GJQsqaUBKTNV-1">
          <mxGeometry width="50" height="50" relative="1" as="geometry">
            <mxPoint x="299.5" y="130" as="sourcePoint" />
            <mxPoint x="299.5" y="200" as="targetPoint" />
          </mxGeometry>
        </mxCell>
        <mxCell id="gXcX9Wi-f0I-uz0T1PP1-60" value="" style="endArrow=classic;html=1;" edge="1" parent="WIyWlLk6GJQsqaUBKTNV-1">
          <mxGeometry width="50" height="50" relative="1" as="geometry">
            <mxPoint x="339.5" y="130" as="sourcePoint" />
            <mxPoint x="339.5" y="200" as="targetPoint" />
          </mxGeometry>
        </mxCell>
        <mxCell id="gXcX9Wi-f0I-uz0T1PP1-61" value="" style="endArrow=classic;html=1;" edge="1" parent="WIyWlLk6GJQsqaUBKTNV-1">
          <mxGeometry width="50" height="50" relative="1" as="geometry">
            <mxPoint x="219.5" y="240" as="sourcePoint" />
            <mxPoint x="219.5" y="310" as="targetPoint" />
          </mxGeometry>
        </mxCell>
        <mxCell id="gXcX9Wi-f0I-uz0T1PP1-62" value="" style="endArrow=classic;html=1;" edge="1" parent="WIyWlLk6GJQsqaUBKTNV-1">
          <mxGeometry width="50" height="50" relative="1" as="geometry">
            <mxPoint x="259.5" y="240" as="sourcePoint" />
            <mxPoint x="259.5" y="310" as="targetPoint" />
          </mxGeometry>
        </mxCell>
        <mxCell id="gXcX9Wi-f0I-uz0T1PP1-63" value="" style="endArrow=classic;html=1;" edge="1" parent="WIyWlLk6GJQsqaUBKTNV-1">
          <mxGeometry width="50" height="50" relative="1" as="geometry">
            <mxPoint x="219.5" y="350" as="sourcePoint" />
            <mxPoint x="219.5" y="420" as="targetPoint" />
          </mxGeometry>
        </mxCell>
        <mxCell id="gXcX9Wi-f0I-uz0T1PP1-64" value="" style="curved=1;endArrow=classic;html=1;exitX=0.5;exitY=1;exitDx=0;exitDy=0;" edge="1" parent="WIyWlLk6GJQsqaUBKTNV-1">
          <mxGeometry width="50" height="50" relative="1" as="geometry">
            <mxPoint x="419.99" y="130" as="sourcePoint" />
            <mxPoint x="260.01" y="197" as="targetPoint" />
            <Array as="points">
              <mxPoint x="410.01" y="177" />
            </Array>
          </mxGeometry>
        </mxCell>
        <mxCell id="gXcX9Wi-f0I-uz0T1PP1-65" value="" style="curved=1;endArrow=classic;html=1;exitX=0.5;exitY=1;exitDx=0;exitDy=0;" edge="1" parent="WIyWlLk6GJQsqaUBKTNV-1">
          <mxGeometry width="50" height="50" relative="1" as="geometry">
            <mxPoint x="459.99" y="130" as="sourcePoint" />
            <mxPoint x="300.01" y="197" as="targetPoint" />
            <Array as="points">
              <mxPoint x="450.01" y="177" />
            </Array>
          </mxGeometry>
        </mxCell>
        <mxCell id="gXcX9Wi-f0I-uz0T1PP1-66" value="" style="curved=1;endArrow=classic;html=1;exitX=0.5;exitY=1;exitDx=0;exitDy=0;" edge="1" parent="WIyWlLk6GJQsqaUBKTNV-1">
          <mxGeometry width="50" height="50" relative="1" as="geometry">
            <mxPoint x="499.99" y="130" as="sourcePoint" />
            <mxPoint x="340.01" y="197" as="targetPoint" />
            <Array as="points">
              <mxPoint x="490.01" y="177" />
            </Array>
          </mxGeometry>
        </mxCell>
        <mxCell id="gXcX9Wi-f0I-uz0T1PP1-69" value="" style="curved=1;endArrow=classic;html=1;" edge="1" parent="WIyWlLk6GJQsqaUBKTNV-1">
          <mxGeometry width="50" height="50" relative="1" as="geometry">
            <mxPoint x="339.99" y="240" as="sourcePoint" />
            <mxPoint x="260" y="307" as="targetPoint" />
            <Array as="points">
              <mxPoint x="330.02" y="287" />
            </Array>
          </mxGeometry>
        </mxCell>
        <mxCell id="gXcX9Wi-f0I-uz0T1PP1-71" value="" style="curved=1;endArrow=classic;html=1;exitX=0.5;exitY=1;exitDx=0;exitDy=0;" edge="1" parent="WIyWlLk6GJQsqaUBKTNV-1" source="gXcX9Wi-f0I-uz0T1PP1-43">
          <mxGeometry width="50" height="50" relative="1" as="geometry">
            <mxPoint x="300" y="350" as="sourcePoint" />
            <mxPoint x="220" y="417" as="targetPoint" />
            <Array as="points">
              <mxPoint x="260" y="370" />
              <mxPoint x="240" y="400" />
            </Array>
          </mxGeometry>
        </mxCell>
      </root>
    </mxGraphModel>
  </diagram>
</mxfile>
